# Blender v2.79 (sub 0) OBJ File: 'kitchen.blend'
# www.blender.org
mtllib armarito.mtl
o Overhead_cupboard_Plane.010
v 11.154503 16.637638 -13.092391
v 11.041912 16.572634 -13.092391
v 11.041912 16.442625 -13.092391
v 11.154503 16.377619 -13.092391
v 11.267096 16.442625 -13.092391
v 11.267096 16.572634 -13.092391
v 11.154503 16.637638 -12.996760
v 11.041912 16.572634 -12.996760
v 11.041912 16.442625 -12.996760
v 11.154503 16.377619 -12.996760
v 11.267096 16.442625 -12.996760
v 11.267096 16.572634 -12.996760
v 11.154503 16.694750 -12.996760
v 10.992453 16.601189 -12.996760
v 10.992453 16.414068 -12.996760
v 11.154503 16.320509 -12.996760
v 11.316555 16.414068 -12.996760
v 11.316555 16.601189 -12.996760
v 11.154503 16.694750 -12.913974
v 10.992453 16.601189 -12.913974
v 10.992453 16.414068 -12.913974
v 11.154503 16.320509 -12.913974
v 11.316555 16.414068 -12.913974
v 11.316555 16.601189 -12.913974
v 7.797801 19.400002 -19.500000
v 7.797801 19.400002 -13.345862
v 16.142925 19.400002 -13.345862
v 16.142925 13.972066 -19.500000
v 7.797801 13.972066 -19.500000
v 16.142925 19.043188 -13.345862
v 7.797801 19.043188 -13.345862
v 7.797801 13.972066 -13.345862
v 16.142925 13.972066 -13.345862
v 15.458422 19.400002 -13.345862
v 11.554502 19.400002 -13.345862
v 8.482304 19.400002 -13.345862
v 8.482304 19.043188 -13.345862
v 11.554502 19.043188 -13.345862
v 15.458422 19.043188 -13.345862
v 8.482304 13.972066 -13.345862
v 11.554502 13.972066 -13.345862
v 15.458422 13.972066 -13.345862
v 12.386222 19.400002 -13.345862
v 12.386222 19.043188 -13.345862
v 12.386222 13.972066 -13.345862
v 8.482304 19.043188 -13.092391
v 11.554502 19.043188 -13.092391
v 8.482304 13.972066 -13.092391
v 11.554502 13.972066 -13.092391
v 15.458422 19.043188 -13.092391
v 15.458422 13.972066 -13.092391
v 12.386222 19.043188 -13.092391
v 12.386222 13.972066 -13.092391
v 16.142925 19.400002 -19.500000
v 16.142925 13.673509 -19.500000
v 7.797801 13.673509 -19.500000
v 7.797801 13.673509 -13.345862
v 16.142925 13.673509 -13.345862
v 8.482304 13.673509 -19.500000
v 11.554502 13.673509 -19.500000
v 15.458422 13.673509 -19.500000
v 8.482304 13.673509 -13.345862
v 11.554502 13.673509 -13.345862
v 15.458422 13.673509 -13.345862
v 12.386222 13.673509 -19.500000
v 12.386222 13.673509 -13.345862
v 12.754503 16.637638 -13.092391
v 12.641912 16.572634 -13.092391
v 12.641912 16.442625 -13.092391
v 12.754503 16.377619 -13.092391
v 12.867096 16.442625 -13.092391
v 12.867096 16.572634 -13.092391
v 12.754503 16.637638 -12.996760
v 12.641912 16.572634 -12.996760
v 12.641912 16.442625 -12.996760
v 12.754503 16.377619 -12.996760
v 12.867096 16.442625 -12.996760
v 12.867096 16.572634 -12.996760
v 12.754503 16.694750 -12.996760
v 12.592453 16.601189 -12.996760
v 12.592453 16.414068 -12.996760
v 12.754503 16.320509 -12.996760
v 12.916555 16.414068 -12.996760
v 12.916555 16.601189 -12.996760
v 12.754503 16.694750 -12.913974
v 12.592453 16.601189 -12.913974
v 12.592453 16.414068 -12.913974
v 12.754503 16.320509 -12.913974
v 12.916555 16.414068 -12.913974
v 12.916555 16.601189 -12.913974
v 11.041912 16.572634 -12.996760
v 11.154503 16.637638 -12.996760
v 11.041912 16.442625 -12.996760
v 11.154503 16.377619 -12.996760
v 11.267096 16.442625 -12.996760
v 11.267096 16.572634 -12.996760
v 10.992453 16.601189 -12.996760
v 11.154503 16.694750 -12.996760
v 10.992453 16.414068 -12.996760
v 11.154503 16.320509 -12.996760
v 11.316555 16.414068 -12.996760
v 11.316555 16.601189 -12.996760
v 10.992453 16.601189 -12.913974
v 11.154503 16.694750 -12.913974
v 10.992453 16.414068 -12.913974
v 11.154503 16.320509 -12.913974
v 11.316555 16.414068 -12.913974
v 11.316555 16.601189 -12.913974
v 12.641912 16.572634 -12.996760
v 12.754503 16.637638 -12.996760
v 12.641912 16.442625 -12.996760
v 12.754503 16.377619 -12.996760
v 12.867096 16.442625 -12.996760
v 12.867096 16.572634 -12.996760
v 12.592453 16.601189 -12.996760
v 12.754503 16.694750 -12.996760
v 12.592453 16.414068 -12.996760
v 12.754503 16.320509 -12.996760
v 12.916555 16.414068 -12.996760
v 12.916555 16.601189 -12.996760
v 12.592453 16.601189 -12.913974
v 12.754503 16.694750 -12.913974
v 12.592453 16.414068 -12.913974
v 12.754503 16.320509 -12.913974
v 12.916555 16.414068 -12.913974
v 12.916555 16.601189 -12.913974
vt 0.334757 0.391564
vt 0.287061 0.391589
vt 0.287061 0.366564
vt 0.334757 0.366564
vt 0.334757 0.679353
vt 0.287061 0.679353
vt 0.287061 0.654840
vt 0.334757 0.654840
vt 0.733574 0.391566
vt 0.689296 0.391553
vt 0.689296 0.366564
vt 0.733574 0.366564
vt 0.539976 0.391540
vt 0.539976 0.366564
vt 0.733574 0.679353
vt 0.689296 0.679353
vt 0.689296 0.654840
vt 0.733574 0.654840
vt 0.539976 0.679353
vt 0.493973 0.679353
vt 0.493973 0.654840
vt 0.539976 0.654840
vt 0.493973 0.391548
vt 0.066222 0.320938
vt 0.066222 0.092626
vt 0.096060 0.090956
vt 0.096060 0.319268
vt 0.036367 0.679353
vt 0.036367 0.391637
vt 0.066222 0.948852
vt 0.066222 0.720540
vt 0.096060 0.718870
vt 0.096060 0.947182
vt 0.234377 0.319268
vt 0.234377 0.090956
vt 0.095343 0.072840
vt 0.233659 0.072840
vt 0.235094 0.337383
vt 0.096777 0.337383
vt 0.264215 0.089285
vt 0.264215 0.317597
vt 0.234377 0.947182
vt 0.234377 0.718870
vt 0.235094 0.965297
vt 0.096777 0.965297
vt 0.095343 0.700754
vt 0.233659 0.700754
vt 0.264214 0.717199
vt 0.264214 0.945511
vt 0.979562 0.391712
vt 0.979562 0.679353
vt 0.733574 0.977585
vt 0.287061 0.977585
vt 0.287061 0.027279
vt 0.334757 0.026407
vt 0.689296 0.021684
vt 0.733574 0.022140
vt 0.493973 0.366564
vt 0.493973 0.022667
vt 0.539976 0.021996
vt 0.979562 0.366564
vt 0.036367 0.366564
vt 0.413602 0.531564
vt 0.411223 0.534599
vt 0.405721 0.535012
vt 0.410515 0.526962
vt 0.419053 0.534878
vt 0.417484 0.531511
vt 0.419758 0.526484
vt 0.424571 0.534513
vt 0.412949 0.537883
vt 0.410648 0.542843
vt 0.416834 0.538065
vt 0.419953 0.542656
vt 0.405721 0.535012
vt 0.410648 0.542843
vt 0.408718 0.546078
vt 0.402150 0.535060
vt 0.419758 0.526484
vt 0.410515 0.526962
vt 0.408414 0.523518
vt 0.421714 0.523133
vt 0.419953 0.542656
vt 0.424571 0.534513
vt 0.428428 0.534606
vt 0.421780 0.546015
vt 0.402150 0.557314
vt 0.408718 0.546078
vt 0.411815 0.550630
vt 0.407592 0.557223
vt 0.420863 0.569066
vt 0.407802 0.569129
vt 0.410382 0.564225
vt 0.417766 0.564514
vt 0.421780 0.546015
vt 0.427431 0.557831
vt 0.421989 0.557921
vt 0.419199 0.550920
vt 0.407592 0.557223
vt 0.411815 0.550630
vt 0.419199 0.550920
vt 0.421989 0.557921
vt 0.417766 0.564514
vt 0.410382 0.564225
vt 0.413621 0.485169
vt 0.411356 0.488350
vt 0.405751 0.488688
vt 0.410550 0.480577
vt 0.419222 0.488703
vt 0.417525 0.485372
vt 0.419924 0.480312
vt 0.424693 0.488362
vt 0.412906 0.491734
vt 0.410619 0.496656
vt 0.416805 0.491728
vt 0.419882 0.496432
vt 0.405751 0.488688
vt 0.410619 0.496656
vt 0.408670 0.499890
vt 0.402150 0.488719
vt 0.419924 0.480312
vt 0.410550 0.480577
vt 0.408467 0.477072
vt 0.421940 0.476971
vt 0.419882 0.496432
vt 0.424693 0.488362
vt 0.428555 0.488504
vt 0.421670 0.499805
vt 0.402150 0.511084
vt 0.408670 0.499890
vt 0.411760 0.504416
vt 0.407567 0.510985
vt 0.420795 0.522751
vt 0.407794 0.522836
vt 0.410355 0.517950
vt 0.417705 0.518226
vt 0.421670 0.499805
vt 0.427315 0.511557
vt 0.421898 0.511656
vt 0.419109 0.504692
vt 0.407567 0.510985
vt 0.411760 0.504416
vt 0.419109 0.504692
vt 0.421898 0.511656
vt 0.417705 0.518226
vt 0.410355 0.517950
vn 0.0000 0.0000 1.0000
vn -1.0000 0.0000 0.0000
vn 0.0000 -1.0000 0.0000
vn 0.0000 1.0000 0.0000
vn 1.0000 0.0000 0.0000
vn 0.8660 0.5000 0.0000
vn -0.8660 -0.5000 0.0000
vn -0.8660 0.5000 0.0000
vn 0.8660 -0.5000 0.0000
vn 0.0000 0.0000 -1.0000
g Overhead_cupboard_Plane.010_Cupboard
usemtl Cupboard
s off
f 40/1/1 32/2/1 57/3/1 62/4/1
f 36/5/1 26/6/1 31/7/1 37/8/1
f 37/8/1 31/7/1 32/2/1 40/1/1
f 33/9/1 42/10/1 64/11/1 58/12/1
f 42/10/1 45/13/1 66/14/1 64/11/1
f 27/15/1 34/16/1 39/17/1 30/18/1
f 43/19/1 35/20/1 38/21/1 44/22/1
f 35/20/1 36/5/1 37/8/1 38/21/1
f 30/18/1 39/17/1 42/10/1 33/9/1
f 44/22/1 38/21/1 41/23/1 45/13/1
f 37/24/2 40/25/2 48/26/2 46/27/2
f 32/2/2 31/7/2 26/6/2 25/28/2 29/29/2
f 34/16/1 43/19/1 44/22/1 39/17/1
f 44/30/2 45/31/2 53/32/2 52/33/2
f 47/34/1 46/27/1 48/26/1 49/35/1
f 40/36/3 41/37/3 49/35/3 48/26/3
f 38/38/4 37/39/4 46/27/4 47/34/4
f 41/40/5 38/41/5 47/34/5 49/35/5
f 50/42/1 52/33/1 53/32/1 51/43/1
f 39/44/4 44/45/4 52/33/4 50/42/4
f 45/46/3 42/47/3 51/43/3 53/32/3
f 42/48/5 39/49/5 50/42/5 51/43/5
f 28/50/5 54/51/5 27/15/5 30/18/5 33/9/5
f 36/5/4 35/20/4 43/19/4 34/16/4 27/15/4 54/52/4 25/53/4 26/6/4
f 62/4/3 57/3/3 56/54/3 59/55/3
f 58/12/3 64/11/3 61/56/3 55/57/3
f 66/14/3 63/58/3 60/59/3 65/60/3
f 63/58/3 62/4/3 59/55/3 60/59/3
f 64/11/3 66/14/3 65/60/3 61/56/3
f 41/23/1 40/1/1 62/4/1 63/58/1
f 45/13/1 41/23/1 63/58/1 66/14/1
f 28/50/5 33/9/5 58/12/5 55/61/5
f 32/2/2 29/29/2 56/62/2 57/3/2
s 1
f 4/63/4 3/64/6 93/65/6 94/66/4
f 6/67/7 5/68/8 95/69/8 96/70/7
f 3/64/6 2/71/9 91/72/9 93/65/6
f 5/68/8 4/63/4 94/66/4 95/69/8
f 1/73/3 6/67/7 96/70/7 92/74/3
f 2/71/9 1/73/3 92/74/3 91/72/9
f 9/75/1 8/76/1 97/77/1 99/78/1
f 11/79/1 10/80/1 100/81/1 101/82/1
f 7/83/1 12/84/1 102/85/1 98/86/1
f 8/76/1 7/83/1 98/86/1 97/77/1
f 10/80/1 9/75/1 99/78/1 100/81/1
f 12/84/1 11/79/1 101/82/1 102/85/1
f 15/87/6 14/88/9 103/89/9 105/90/6
f 17/91/8 16/92/4 106/93/4 107/94/8
f 13/95/3 18/96/7 108/97/7 104/98/3
f 14/88/9 13/95/3 104/98/3 103/89/9
f 16/92/4 15/87/6 105/90/6 106/93/4
f 18/96/7 17/91/8 107/94/8 108/97/7
f 21/99/10 20/100/10 19/101/10 24/102/10 23/103/10 22/104/10
f 70/105/4 69/106/6 111/107/6 112/108/4
f 72/109/7 71/110/8 113/111/8 114/112/7
f 69/106/6 68/113/9 109/114/9 111/107/6
f 71/110/8 70/105/4 112/108/4 113/111/8
f 67/115/3 72/109/7 114/112/7 110/116/3
f 68/113/9 67/115/3 110/116/3 109/114/9
f 75/117/1 74/118/1 115/119/1 117/120/1
f 77/121/1 76/122/1 118/123/1 119/124/1
f 73/125/1 78/126/1 120/127/1 116/128/1
f 74/118/1 73/125/1 116/128/1 115/119/1
f 76/122/1 75/117/1 117/120/1 118/123/1
f 78/126/1 77/121/1 119/124/1 120/127/1
f 81/129/6 80/130/9 121/131/9 123/132/6
f 83/133/8 82/134/4 124/135/4 125/136/8
f 79/137/3 84/138/7 126/139/7 122/140/3
f 80/130/9 79/137/3 122/140/3 121/131/9
f 82/134/4 81/129/6 123/132/6 124/135/4
f 84/138/7 83/133/8 125/136/8 126/139/7
f 87/141/10 86/142/10 85/143/10 90/144/10 89/145/10 88/146/10
