# Blender v2.79 (sub 0) OBJ File: 'kitchen.blend'
# www.blender.org
mtllib ventana.mtl
o Window_1_Plane.005
v -24.486393 11.050009 3.937702
v -24.486393 11.050009 -7.937703
v -24.486393 20.461611 3.937702
v -24.486393 20.461611 -7.937703
v -25.352922 11.232408 3.645449
v -25.297482 11.272852 3.580647
v -25.352922 11.232408 -7.645450
v -25.297482 11.272852 -7.580648
v -25.297482 19.538769 3.580647
v -25.352922 19.611254 3.641633
v -25.297482 19.538769 -7.580648
v -25.352922 19.611254 -7.641634
v -25.279974 10.870904 -8.820791
v -25.279974 10.498861 -8.448749
v -25.352922 10.552076 -8.735526
v -25.279974 10.498861 4.448748
v -25.279974 10.870904 4.820791
v -25.352922 10.564516 4.715594
v -25.279974 20.640717 -8.820791
v -25.352922 20.917383 -8.740547
v -25.279974 21.046114 -8.450247
v -25.279974 21.046114 4.450246
v -25.352922 20.930237 4.751361
v -25.279974 20.640717 4.820791
v -23.822050 11.272852 3.580647
v -23.766609 11.232408 3.645449
v -23.822050 11.272852 -7.580648
v -23.766609 11.232408 -7.645450
v -23.766609 19.611254 3.641633
v -23.822050 19.538769 3.580647
v -23.766609 19.611254 -7.641634
v -23.822050 19.538769 -7.580648
v -23.839560 10.870904 -8.820791
v -23.766609 10.552076 -8.735526
v -23.839560 10.498861 -8.448749
v -23.839560 10.498861 4.448748
v -23.766609 10.564516 4.715594
v -23.839560 10.870904 4.820791
v -23.839560 20.640717 -8.820791
v -23.839560 21.046114 -8.450247
v -23.766609 20.917383 -8.740547
v -23.839560 21.046114 4.450246
v -23.839560 20.640717 4.820791
v -23.766609 20.930237 4.751361
v -25.297482 19.538769 -2.372044
v -25.352922 19.599754 -2.316602
v -25.352922 19.599754 -1.683399
v -25.297482 19.538769 -1.627957
v -25.279974 21.559895 -2.742589
v -25.352922 21.512680 -2.372044
v -25.279974 21.593250 -2.000000
v -25.279974 21.559895 -1.257412
v -25.279974 21.593250 -2.000000
v -25.352922 21.513004 -1.627957
v -23.766609 19.599754 -2.316602
v -23.822050 19.538769 -2.372044
v -23.822050 19.538769 -1.627957
v -23.766609 19.599754 -1.683399
v -23.839560 21.559895 -2.742589
v -23.839560 21.593250 -2.000000
v -23.766609 21.512680 -2.372044
v -23.839560 21.559895 -1.257412
v -23.766609 21.513004 -1.627957
v -23.839560 21.593250 -2.000000
v -25.352922 11.222954 -2.316602
v -25.297482 11.272852 -2.372044
v -25.297482 11.272852 -1.627957
v -25.352922 11.222954 -1.683399
v -25.279974 10.498861 -2.372044
v -25.352922 10.564516 -2.372044
v -25.352922 10.564516 -1.627957
v -25.279974 10.498861 -1.627957
v -23.822050 11.272852 -2.372044
v -23.766609 11.222954 -2.316602
v -23.766609 11.222954 -1.683399
v -23.822050 11.272852 -1.627957
v -23.766609 10.564516 -2.372044
v -23.839560 10.498861 -2.372044
v -23.839560 10.498861 -1.627957
v -23.766609 10.564516 -1.627957
vt 1.218297 1.440307
vt 1.831332 1.442188
vt 1.830799 1.615841
vt 1.217764 1.613960
vt -0.863157 1.770372
vt -0.236422 1.767096
vt -0.242257 1.992260
vt -0.992024 1.924496
vt 1.217724 1.613960
vt 0.604688 1.615841
vt 0.604156 1.442188
vt 1.217191 1.440307
vt -0.239447 0.781173
vt -0.866632 0.784210
vt -0.995176 0.704531
vt -0.246210 0.703698
vt -0.242257 0.683928
vt -0.993292 0.617642
vt -0.863157 0.462001
vt -0.236422 0.458725
vt 0.594657 0.611257
vt -0.154680 0.683621
vt -0.161896 0.458496
vt 0.464847 0.457927
vt 0.590323 -0.608703
vt 0.462270 -0.528237
vt -0.158633 -0.604942
vt -0.164921 -0.527425
vt -0.961072 -0.797907
vt -0.289299 -0.795846
vt -0.289820 -0.626314
vt -0.961592 -0.628375
vt 0.604156 1.631876
vt 1.577027 1.628892
vt 1.577559 1.802545
vt 0.604688 1.805530
vt -0.992825 -0.602383
vt -0.246210 -0.604673
vt -0.239447 -0.527197
vt -0.866631 -0.524160
vt 0.604688 1.254810
vt 1.217724 1.252929
vt 1.217191 1.079275
vt 0.604156 1.081156
vt 0.464846 1.766298
vt 0.462270 0.780133
vt 0.587982 0.701138
vt 0.595934 1.921137
vt -0.960895 -0.989536
vt -0.245687 -0.987342
vt -0.246207 -0.817810
vt -0.961416 -0.820004
vt -0.158111 -0.987074
vt 0.557097 -0.984879
vt 0.556577 -0.815347
vt -0.158631 -0.817541
vt 1.795122 -0.627245
vt 0.645247 -0.623717
vt 0.644727 -0.793250
vt 1.794602 -0.796777
vt 1.831333 1.252929
vt 1.218297 1.254810
vt 1.217764 1.081156
vt 1.830800 1.079276
vt 1.577027 1.995218
vt 0.604156 1.992234
vt 0.604688 1.818580
vt 1.577560 1.821565
vt -0.164921 0.780945
vt -0.161897 1.766867
vt -0.158633 0.703429
vt -0.114499 -0.795310
vt 0.557274 -0.793249
vt 0.556753 -0.623717
vt -0.115019 -0.625778
vt -0.154680 1.992030
vt 0.604688 0.889587
vt 1.577560 0.892572
vt 1.577027 1.066225
vt 0.604156 1.063240
vt 0.647950 -0.602749
vt 1.797825 -0.606277
vt 1.798345 -0.436745
vt 0.648470 -0.433217
vt 0.604156 0.702883
vt 1.577027 0.699898
vt 1.577560 0.873552
vt 0.604688 0.876536
vt -0.201899 -0.795578
vt -0.201899 -0.795578
vt -0.202419 -0.626046
vt -0.202419 -0.626046
vt 1.838910 -0.627380
vt 1.832673 -0.618774
vt -1.004684 -0.989671
vt -0.992276 -0.998219
vt 0.612710 -0.615032
vt 0.601458 -0.623583
vt 0.593673 -0.801724
vt 0.600886 -0.793115
vt 1.832100 -0.805478
vt 1.838390 -0.796912
vt -0.992849 -0.811515
vt -1.005204 -0.820139
vt 0.600938 -0.793115
vt 0.612137 -0.801736
vt 0.600365 -0.623583
vt 0.593100 -0.615020
vt -0.246508 -0.804301
vt -0.245687 -0.795713
vt -0.158111 -0.795444
vt -0.157241 -0.804027
vt -0.246208 -0.626181
vt -0.247081 -0.617597
vt -0.157814 -0.617323
vt -0.158631 -0.625912
vt 0.454658 0.784917
vt -0.158378 0.786798
vt 1.218317 1.433782
vt 1.831352 1.435663
vt 0.457642 1.757788
vt 0.604136 1.625351
vt 1.577007 1.622366
vt -0.245661 -0.995928
vt 0.560536 1.934884
vt -0.111052 1.997415
vt 0.613848 -0.611231
vt 1.833860 -0.614973
vt -1.001568 1.891962
vt -1.005096 0.742087
vt 0.604136 1.435662
vt 1.217171 1.433782
vt -0.856005 0.453448
vt -0.242970 0.451567
vt 1.577007 1.072750
vt 0.604136 1.069765
vt 0.457643 0.449418
vt 0.454658 -0.523453
vt -0.961442 -0.610206
vt -0.246234 -0.612400
vt -1.001568 0.583591
vt -1.005096 -0.566284
vt -1.005204 -0.628509
vt -1.004684 -0.798041
vt 0.604682 -0.433083
vt 0.604162 -0.602615
vt -0.856005 1.761818
vt -0.242970 1.759938
vt -0.996291 -0.806601
vt -0.245661 -0.804299
vt -0.158085 -0.804030
vt 1.217744 1.074631
vt 1.830780 1.072750
vt 0.560536 0.626513
vt -0.111051 0.689045
vt -0.198440 0.693238
vt -0.198440 0.693238
vt 0.604708 1.261335
vt 1.217744 1.259454
vt -0.961442 0.698164
vt -0.246234 0.695970
vt -0.158657 0.695702
vt -0.158378 -0.521573
vt 0.590304 -0.806658
vt -0.158657 -0.808956
vt -0.246234 -0.809224
vt 0.604708 1.812055
vt 1.577580 1.815040
vt 0.604136 0.696358
vt 1.577007 0.693373
vt -0.155393 0.451298
vt 1.577580 0.880077
vt 0.604708 0.883062
vt 0.607534 0.693373
vt 0.604136 -0.414342
vt 2.001832 -0.418630
vt 2.005230 0.689085
vn 0.0000 -1.0000 0.0000
vn -1.0000 0.0000 0.0000
vn 0.0000 1.0000 0.0000
vn 1.0000 -0.0000 0.0000
vn 0.0000 0.9960 -0.0897
vn 0.0000 0.0000 1.0000
vn 0.0000 0.0000 -1.0000
vn 0.0000 0.9960 0.0897
vn 0.9147 -0.2857 -0.2857
vn 0.8898 -0.3226 0.3226
vn 0.8679 0.3352 -0.3667
vn 0.8922 0.3047 0.3334
vn -0.9147 -0.2857 -0.2857
vn -0.8898 -0.3226 0.3226
vn -0.8678 0.3352 -0.3667
vn -0.8922 0.3048 0.3334
vn -0.6583 0.7520 -0.0338
vn -0.6564 0.7537 0.0339
vn 0.6583 0.7520 -0.0338
vn 0.6564 0.7537 0.0339
vn -0.6317 0.7752 -0.0007
vn -0.7692 -0.6390 0.0007
vn -0.7502 -0.0002 -0.6612
vn -0.7502 -0.0002 0.6612
vn -0.6690 -0.7433 0.0000
vn -0.7557 0.6522 0.0592
vn -0.7674 -0.0011 0.6412
vn -0.7501 -0.0002 -0.6613
vn 0.6317 0.7752 -0.0007
vn 0.7692 -0.6390 0.0007
vn 0.7502 -0.0002 -0.6612
vn 0.7502 -0.0002 0.6612
vn 0.6690 -0.7433 0.0000
vn 0.7557 0.6522 0.0592
vn 0.7673 -0.0011 0.6412
vn 0.7501 -0.0002 -0.6613
vn 0.0000 -0.7071 -0.7071
vn 0.0000 -0.7071 0.7071
vn 0.0000 0.6747 -0.7381
vn 0.0000 0.6747 0.7381
vn -0.7692 -0.6390 -0.0007
vn -0.7812 0.6217 -0.0571
vn -0.7406 0.6719 -0.0003
vn 0.7692 -0.6390 -0.0007
vn 0.7812 0.6217 -0.0571
vn 0.7406 0.6719 -0.0003
vn 0.0000 0.9990 -0.0449
vn 0.0000 0.9990 0.0449
vn -0.6317 0.7752 0.0007
vn -0.6326 -0.7745 0.0008
vn 0.6317 0.7752 0.0007
vn 0.6326 -0.7745 0.0008
vn -0.7071 -0.0000 -0.7071
vn -0.7071 -0.0000 0.7071
vn 0.7071 0.0000 -0.7071
vn 0.7071 0.0000 0.7071
usemtl Wood
s off
f 9/1/1 48/2/1 57/3/1 30/4/1
f 12/5/2 46/6/2 50/7/2 20/8/2
f 67/9/3 6/10/3 25/11/3 76/12/3
f 65/13/2 7/14/2 15/15/2 70/16/2
f 63/17/4 44/18/4 29/19/4 58/20/4
f 41/21/4 61/22/4 55/23/4 31/24/4
f 34/25/4 41/21/4 31/24/4 28/26/4
f 77/27/4 34/25/4 28/26/4 74/28/4
f 21/29/5 49/30/5 59/31/5 40/32/5
f 11/33/6 8/34/6 27/35/6 32/36/6
f 37/37/4 80/38/4 75/39/4 26/40/4
f 8/41/3 66/42/3 73/43/3 27/44/3
f 10/45/2 5/46/2 18/47/2 23/48/2
f 16/49/1 72/50/1 79/51/1 36/52/1
f 69/53/1 14/54/1 35/55/1 78/56/1
f 13/57/7 19/58/7 39/59/7 33/60/7
f 45/61/1 11/62/1 32/63/1 56/64/1
f 56/65/7 73/66/7 66/67/7 45/68/7
f 46/6/2 65/13/2 68/69/2 47/70/2
f 68/69/2 65/13/2 70/16/2 71/71/2
f 52/72/8 22/73/8 42/74/8 62/75/8
f 58/20/4 75/39/4 74/28/4 55/23/4
f 47/70/2 10/45/2 23/48/2 54/76/2
f 6/77/7 9/78/7 30/79/7 25/80/7
f 72/50/1 69/53/1 78/56/1 79/51/1
f 44/18/4 37/37/4 26/40/4 29/19/4
f 7/14/2 12/5/2 20/8/2 15/15/2
f 24/81/6 17/82/6 38/83/6 43/84/6
f 80/38/4 77/27/4 74/28/4 75/39/4
f 46/6/2 47/70/2 54/76/2 50/7/2
f 48/85/6 67/86/6 76/87/6 57/88/6
f 61/22/4 63/17/4 58/20/4 55/23/4
f 51/89/6 53/90/6 64/91/6 60/92/6
f 13/57/9 14/93/9 15/94/9
f 16/49/10 17/95/10 18/96/10
f 19/58/11 20/97/11 21/98/11
f 22/73/12 23/99/12 24/100/12
f 33/60/13 34/101/13 35/102/13
f 36/52/14 37/103/14 38/104/14
f 39/59/15 40/105/15 41/106/15
f 42/74/16 43/107/16 44/108/16
f 49/30/17 50/109/17 51/110/17
f 52/72/18 53/111/18 54/112/18
f 59/31/19 60/113/19 61/114/19
f 62/75/20 63/115/20 64/116/20
f 68/69/21 5/46/21 6/117/21 67/118/21
f 48/2/22 9/1/22 10/119/22 47/120/22
f 5/46/23 10/45/23 9/121/23 6/117/23
f 8/34/24 11/33/24 12/122/24 7/123/24
f 72/50/25 16/49/25 18/96/25 71/124/25
f 54/76/26 23/48/26 22/125/26 52/126/26
f 17/82/27 24/81/27 23/127/27 18/128/27
f 15/15/28 20/8/28 19/129/28 13/130/28
f 76/12/29 25/11/29 26/131/29 75/132/29
f 58/20/30 29/19/30 30/133/30 57/134/30
f 25/80/31 30/79/31 29/135/31 26/136/31
f 28/26/32 31/24/32 32/137/32 27/138/32
f 80/38/33 37/37/33 36/139/33 79/140/33
f 62/75/34 42/74/34 44/108/34 63/115/34
f 37/37/35 44/18/35 43/141/35 38/142/35
f 33/60/36 39/59/36 41/106/36 34/101/36
f 13/57/37 33/60/37 35/102/37 14/93/37
f 16/49/38 36/52/38 38/104/38 17/95/38
f 21/29/39 40/32/39 39/143/39 19/144/39
f 24/81/40 43/84/40 42/145/40 22/146/40
f 46/6/41 12/5/41 11/147/41 45/148/41
f 49/30/42 21/29/42 20/149/42 50/109/42
f 53/90/43 51/89/43 50/150/43 54/151/43
f 56/64/44 32/63/44 31/152/44 55/153/44
f 61/22/45 41/21/45 40/154/45 59/155/45
f 63/17/46 61/22/46 60/156/46 64/157/46
f 51/89/47 60/92/47 59/31/47 49/30/47
f 52/72/48 62/75/48 64/91/48 53/90/48
f 66/42/49 8/41/49 7/158/49 65/159/49
f 70/16/50 15/15/50 14/160/50 69/161/50
f 71/71/25 70/16/25 69/161/25 72/162/25
f 74/28/51 28/26/51 27/138/51 73/163/51
f 78/56/52 35/55/52 34/164/52 77/165/52
f 79/51/33 78/56/33 77/165/33 80/166/33
f 45/68/53 66/67/53 65/167/53 46/168/53
f 67/86/54 48/85/54 47/169/54 68/170/54
f 55/23/55 74/28/55 73/163/55 56/171/55
f 57/88/56 76/87/56 75/172/56 58/173/56
f 5/46/2 68/69/2 71/71/2 18/47/2
usemtl Glass
f 4/174/2 2/175/2 1/176/2 3/177/2
