# Blender v2.92.0 OBJ File: 'movil.blend'
# www.blender.org
mtllib movil.mtl
o Cube_Cube.001
v -0.519885 -1.000000 1.098964
v -0.519885 3.021854 1.098964
v -0.163643 -1.000000 1.098964
v -0.163643 3.021854 1.098964
v -0.519885 -1.000000 0.827433
v -0.519885 3.084388 0.827433
v -0.163643 -1.000000 0.827433
v -0.163643 3.084388 0.827433
v -0.519885 2.654781 1.152971
v -0.163643 2.654781 1.152971
v -0.167215 2.769894 0.990695
v -0.519885 2.654781 0.827433
v -0.163643 -0.650487 1.152971
v -0.167215 -0.650487 0.990695
v -0.519885 -0.650487 0.827433
v -0.519885 -0.650487 1.152971
v -0.519885 -1.000000 -0.019508
v -0.163643 3.084388 -0.019508
v -0.167215 2.769894 -0.019508
v -0.167215 -0.650487 -0.019508
v -0.519885 3.084388 -0.019508
v -0.163643 -1.000000 -0.019508
v -0.519885 2.654781 -0.019508
v -0.519885 -0.650487 -0.019508
v -0.519885 -1.000000 0.425591
v -0.163643 3.084388 0.425591
v -0.167215 2.769894 0.503798
v -0.167215 -0.650487 0.503798
v -0.519885 3.084388 0.349985
v -0.163643 -1.000000 0.425591
v -0.519885 2.654781 0.425591
v -0.519885 -0.650487 0.425591
v -0.163643 -0.721181 1.142047
v -0.169329 -0.721181 0.957673
v -0.519885 -0.721181 0.827433
v -0.519885 -0.721181 1.142047
v -0.519885 -0.721181 -0.019508
v -0.194143 -0.721181 -0.019508
v -0.519885 -0.721181 0.425591
v -0.169329 -0.722328 0.325410
v -0.119390 -0.721181 -0.019508
v -0.119390 -0.722328 0.325410
v -0.207733 2.769894 0.503798
v -0.207733 2.769894 0.990695
v -0.207733 -0.650487 0.990695
v -0.207733 -0.650487 0.503798
v -0.207733 2.769894 -0.019508
v -0.207733 -0.650487 -0.019508
v -0.163643 -0.950235 1.106653
v -0.169087 -0.950235 0.850678
v -0.519885 -0.950235 0.827433
v -0.519885 -0.950235 -0.019508
v -0.169087 -0.950235 -0.019508
v -0.519885 -0.950235 0.425591
v -0.169087 -0.950440 0.317103
v -0.119390 -0.950235 -0.019508
v -0.119390 -0.950440 0.317103
v -0.519885 -0.950235 1.106653
v -0.519885 -1.000000 -1.098964
v -0.519885 3.021854 -1.098964
v -0.163643 -1.000000 -1.098964
v -0.163643 3.021854 -1.098964
v -0.519885 -1.000000 -0.827433
v -0.519885 3.084388 -0.827433
v -0.163643 -1.000000 -0.827433
v -0.163643 3.084388 -0.827433
v -0.519885 2.654781 -1.152971
v -0.163643 2.654781 -1.152971
v -0.167215 2.769894 -0.990695
v -0.519885 2.654781 -0.827433
v -0.163643 -0.650487 -1.152971
v -0.167215 -0.650487 -0.990695
v -0.519885 -0.650487 -0.827433
v -0.519885 -0.650487 -1.152971
v -0.519885 -1.000000 0.019508
v -0.163643 3.084388 0.019508
v -0.167215 2.769894 0.019508
v -0.167215 -0.650487 0.019508
v -0.519885 3.084388 0.019508
v -0.163643 -1.000000 0.019508
v -0.519885 2.654781 0.019508
v -0.519885 -0.650487 0.019508
v -0.519885 -1.000000 -0.425591
v -0.163643 3.084388 -0.425591
v -0.167215 2.769894 -0.503798
v -0.167215 -0.650487 -0.503798
v -0.519885 3.084388 -0.349985
v -0.163643 -1.000000 -0.425591
v -0.519885 2.654781 -0.425591
v -0.519885 -0.650487 -0.425591
v -0.163643 -0.721181 -1.142047
v -0.169329 -0.721181 -0.957673
v -0.519885 -0.721181 -0.827433
v -0.519885 -0.721181 -1.142047
v -0.519885 -0.721181 0.019508
v -0.194143 -0.721181 0.019508
v -0.519885 -0.721181 -0.425591
v -0.169329 -0.722328 -0.325410
v -0.119390 -0.721181 0.019508
v -0.119390 -0.722328 -0.325410
v -0.207733 2.769894 -0.503798
v -0.207733 2.769894 -0.990695
v -0.207733 -0.650487 -0.990695
v -0.207733 -0.650487 -0.503798
v -0.207733 2.769894 0.019508
v -0.207733 -0.650487 0.019508
v -0.163643 -0.950235 -1.106653
v -0.169087 -0.950235 -0.850678
v -0.519885 -0.950235 -0.827433
v -0.519885 -0.950235 0.019508
v -0.169087 -0.950235 0.019508
v -0.519885 -0.950235 -0.425591
v -0.169087 -0.950440 -0.317103
v -0.119390 -0.950235 0.019508
v -0.119390 -0.950440 -0.317103
v -0.519885 -0.950235 -1.106653
vt 0.078138 0.720778
vt 0.068829 0.780231
vt 0.043130 0.753077
vt 0.056471 0.695858
vt 0.529880 0.238611
vt 0.529880 0.179490
vt 0.586645 0.179490
vt 0.586645 0.238611
vt 0.586645 0.864910
vt 0.529880 0.864910
vt 0.529880 0.821643
vt 0.586645 0.821643
vt 0.529880 0.135090
vt 0.586645 0.135090
vt 0.529880 0.071058
vt 0.586645 0.059011
vt 0.586645 0.928942
vt 0.529880 0.928941
vt 0.130616 0.784060
vt 0.105636 0.820601
vt 0.181544 0.068590
vt 0.190150 0.010098
vt 0.233417 0.000134
vt 0.233417 0.068590
vt 0.181543 0.595267
vt 0.233416 0.595267
vt 0.032075 0.114824
vt 0.035941 0.123663
vt 0.005390 0.155466
vt 0.000134 0.148665
vt 0.529880 0.765289
vt 0.586645 0.765289
vt 0.057083 0.183320
vt 0.030305 0.196647
vt 0.052751 0.168106
vt 0.026484 0.187572
vt 0.529880 0.776687
vt 0.586645 0.776687
vt 0.125904 0.077577
vt 0.115781 0.110740
vt 0.183284 0.606532
vt 0.233416 0.606532
vt 0.297448 0.068590
vt 0.309496 0.000134
vt 0.368373 0.000134
vt 0.368373 0.068590
vt 0.297448 0.595267
vt 0.368373 0.595267
vt 0.297448 0.606532
vt 0.368373 0.606532
vt 0.177130 0.837687
vt 0.134800 0.780552
vt 0.181275 0.834087
vt 0.145268 0.865691
vt 0.586645 0.999866
vt 0.529880 0.999866
vt 0.529880 0.000134
vt 0.586645 0.000134
vt 0.380397 0.558971
vt 0.412643 0.560504
vt 0.413729 0.605546
vt 0.381189 0.603283
vt 0.368641 0.545423
vt 0.424167 0.548439
vt 0.233416 0.643031
vt 0.297448 0.643031
vt 0.368373 0.643031
vt 0.188924 0.643030
vt 0.096068 0.051492
vt 0.529880 0.813619
vt 0.586645 0.813619
vt 0.164940 0.028151
vt 0.175558 0.036931
vt 0.424167 0.614423
vt 0.452027 0.545155
vt 0.452027 0.000134
vt 0.529612 0.000134
vt 0.529612 0.545155
vt 0.368641 0.545155
vt 0.368641 0.000134
vt 0.181275 0.041553
vt 0.121570 0.115386
vt 0.065587 0.185868
vt 0.085158 0.718215
vt 0.077059 0.060610
vt 0.190149 0.650960
vt 0.233416 0.650960
vt 0.297448 0.650960
vt 0.368373 0.650961
vt 0.372844 0.614303
vt 0.127253 0.000134
vt 0.134055 0.005780
vt 0.078138 0.720778
vt 0.056471 0.695858
vt 0.043130 0.753077
vt 0.068829 0.780231
vt 0.529880 0.238611
vt 0.586645 0.238611
vt 0.586645 0.179490
vt 0.529880 0.179490
vt 0.586645 0.864910
vt 0.586645 0.821643
vt 0.529880 0.821643
vt 0.529880 0.864910
vt 0.529880 0.135090
vt 0.586645 0.135090
vt 0.529880 0.071058
vt 0.586645 0.059011
vt 0.586645 0.928942
vt 0.529880 0.928941
vt 0.130616 0.784060
vt 0.105636 0.820601
vt 0.181544 0.068590
vt 0.233417 0.068590
vt 0.233417 0.000134
vt 0.190150 0.010098
vt 0.181543 0.595267
vt 0.233416 0.595267
vt 0.032075 0.114824
vt 0.000134 0.148665
vt 0.005390 0.155466
vt 0.035941 0.123663
vt 0.529880 0.765289
vt 0.586645 0.765289
vt 0.057083 0.183320
vt 0.030305 0.196647
vt 0.052751 0.168106
vt 0.026484 0.187572
vt 0.529880 0.776687
vt 0.586645 0.776687
vt 0.125904 0.077577
vt 0.115781 0.110740
vt 0.183284 0.606532
vt 0.233416 0.606532
vt 0.297448 0.068590
vt 0.368373 0.068590
vt 0.368373 0.000134
vt 0.309496 0.000134
vt 0.297448 0.595267
vt 0.368373 0.595267
vt 0.297448 0.606532
vt 0.368373 0.606532
vt 0.177130 0.837687
vt 0.181275 0.834087
vt 0.134800 0.780552
vt 0.145268 0.865691
vt 0.586645 0.999866
vt 0.529880 0.999866
vt 0.529880 0.000134
vt 0.586645 0.000134
vt 0.380397 0.558971
vt 0.381189 0.603283
vt 0.413729 0.605546
vt 0.412643 0.560504
vt 0.368641 0.545423
vt 0.424167 0.548439
vt 0.233416 0.643031
vt 0.297448 0.643031
vt 0.368373 0.643031
vt 0.188924 0.643030
vt 0.096068 0.051492
vt 0.529880 0.813619
vt 0.586645 0.813619
vt 0.175558 0.036931
vt 0.164940 0.028151
vt 0.424167 0.614423
vt 0.452027 0.545155
vt 0.529612 0.545155
vt 0.529612 0.000134
vt 0.452027 0.000134
vt 0.368641 0.545155
vt 0.368641 0.000134
vt 0.121570 0.115386
vt 0.181275 0.041553
vt 0.085158 0.718215
vt 0.065587 0.185868
vt 0.077059 0.060610
vt 0.190149 0.650960
vt 0.233416 0.650960
vt 0.297448 0.650960
vt 0.368373 0.650961
vt 0.372844 0.614303
vt 0.134055 0.005780
vt 0.127253 0.000134
vn 0.9999 -0.0090 -0.0119
vn 0.0000 0.1456 0.9893
vn 0.0000 -1.0000 0.0000
vn 0.0000 0.9745 0.2244
vn 0.0000 1.0000 0.0000
vn 0.9999 -0.0114 0.0000
vn -1.0000 -0.0000 0.0000
vn 0.9983 0.0578 -0.0103
vn 0.0000 0.0000 1.0000
vn 0.9998 0.0000 -0.0220
vn 0.9996 -0.0067 -0.0267
vn 0.0000 -0.1527 0.9883
vn 0.9996 -0.0297 0.0000
vn 1.0000 0.0000 0.0000
vn 0.0000 -0.0000 -1.0000
vn 1.0000 0.0011 -0.0000
vn 0.9996 0.0084 -0.0253
vn 0.9858 -0.1653 -0.0284
vn 0.0000 1.0000 0.0033
vn 0.9940 0.1089 -0.0000
vn 0.0000 -1.0000 -0.0006
vn 0.9940 0.1090 0.0000
vn 0.0000 -0.0364 0.9993
vn 0.9999 -0.0090 0.0119
vn 0.0000 0.1456 -0.9893
vn 0.0000 0.9745 -0.2244
vn 0.9983 0.0578 0.0103
vn 0.9998 0.0000 0.0220
vn 0.9996 -0.0067 0.0267
vn 0.0000 -0.1527 -0.9883
vn 0.9996 0.0084 0.0253
vn 0.9858 -0.1653 0.0284
vn 0.0000 1.0000 -0.0033
vn 0.0000 -1.0000 0.0006
vn 0.0000 -0.0364 -0.9993
g Cube_Cube.001_Material.001
usemtl Material.001
s off
f 11/1/1 8/2/1 4/3/1 10/4/1
f 10/5/2 4/6/2 2/7/2 9/8/2
f 5/9/3 7/10/3 3/11/3 1/12/3
f 8/13/4 6/14/4 2/7/4 4/6/4
f 26/15/5 29/16/5 6/14/5 8/13/5
f 25/17/3 30/18/3 7/10/3 5/9/3
f 27/19/6 26/20/6 8/2/6 11/1/6
f 9/21/7 2/22/7 6/23/7 12/24/7
f 16/25/7 9/21/7 12/24/7 15/26/7
f 7/27/8 50/28/8 49/29/8 3/30/8
f 13/31/9 10/5/9 9/8/9 16/32/9
f 14/33/10 11/1/10 10/4/10 13/34/10
f 34/35/11 14/33/11 13/34/11 33/36/11
f 33/37/12 13/31/12 16/32/12 36/38/12
f 40/39/13 28/40/13 14/33/13 34/35/13
f 36/41/7 16/25/7 15/26/7 35/42/7
f 31/43/7 29/44/7 21/45/7 23/46/7
f 32/47/7 31/43/7 23/46/7 24/48/7
f 39/49/7 32/47/7 24/48/7 37/50/7
f 35/42/7 15/26/7 32/47/7 39/49/7
f 15/26/7 12/24/7 31/43/7 32/47/7
f 12/24/7 6/23/7 29/44/7 31/43/7
f 19/51/3 27/19/3 43/52/3 47/53/3
f 19/51/6 18/54/6 26/20/6 27/19/6
f 17/55/3 22/56/3 30/18/3 25/17/3
f 18/57/5 21/58/5 29/16/5 26/15/5
f 56/59/14 41/60/14 42/61/14 57/62/14
f 53/63/15 38/64/15 41/60/15 56/59/15
f 51/65/7 35/42/7 39/49/7 54/66/7
f 54/66/7 39/49/7 37/50/7 52/67/7
f 58/68/7 36/41/7 35/42/7 51/65/7
f 55/69/16 40/39/16 34/35/16 50/28/16
f 49/70/12 33/37/12 36/38/12 58/71/12
f 50/28/17 34/35/17 33/36/17 49/29/17
f 28/40/18 40/39/18 38/72/18 20/73/18
f 42/61/19 41/60/19 38/64/19 40/74/19
f 46/75/14 43/76/14 44/77/14 45/78/14
f 48/79/14 47/80/14 43/76/14 46/75/14
f 28/40/5 20/73/5 48/81/5 46/82/5
f 11/1/15 14/33/15 45/83/15 44/84/15
f 27/19/3 11/1/3 44/84/3 43/52/3
f 14/33/5 28/40/5 46/82/5 45/83/5
f 3/11/12 49/70/12 58/71/12 1/12/12
f 30/85/20 55/69/20 50/28/20 7/27/20
f 1/86/7 58/68/7 51/65/7 5/87/7
f 25/88/7 54/66/7 52/67/7 17/89/7
f 5/87/7 51/65/7 54/66/7 25/88/7
f 55/90/21 53/63/21 56/59/21 57/62/21
f 30/85/22 22/91/22 53/92/22 55/69/22
f 40/74/23 55/90/23 57/62/23 42/61/23
f 69/93/24 68/94/24 62/95/24 66/96/24
f 68/97/25 67/98/25 60/99/25 62/100/25
f 63/101/3 59/102/3 61/103/3 65/104/3
f 66/105/26 62/100/26 60/99/26 64/106/26
f 84/107/5 66/105/5 64/106/5 87/108/5
f 83/109/3 63/101/3 65/104/3 88/110/3
f 85/111/6 69/93/6 66/96/6 84/112/6
f 67/113/7 70/114/7 64/115/7 60/116/7
f 74/117/7 73/118/7 70/114/7 67/113/7
f 65/119/27 61/120/27 107/121/27 108/122/27
f 71/123/15 74/124/15 67/98/15 68/97/15
f 72/125/28 71/126/28 68/94/28 69/93/28
f 92/127/29 91/128/29 71/126/29 72/125/29
f 91/129/30 94/130/30 74/124/30 71/123/30
f 98/131/13 92/127/13 72/125/13 86/132/13
f 94/133/7 93/134/7 73/118/7 74/117/7
f 89/135/7 81/136/7 79/137/7 87/138/7
f 90/139/7 82/140/7 81/136/7 89/135/7
f 97/141/7 95/142/7 82/140/7 90/139/7
f 93/134/7 97/141/7 90/139/7 73/118/7
f 73/118/7 90/139/7 89/135/7 70/114/7
f 70/114/7 89/135/7 87/138/7 64/115/7
f 77/143/3 105/144/3 101/145/3 85/111/3
f 77/143/6 85/111/6 84/112/6 76/146/6
f 75/147/3 83/109/3 88/110/3 80/148/3
f 76/149/5 84/107/5 87/108/5 79/150/5
f 114/151/14 115/152/14 100/153/14 99/154/14
f 111/155/9 114/151/9 99/154/9 96/156/9
f 109/157/7 112/158/7 97/141/7 93/134/7
f 112/158/7 110/159/7 95/142/7 97/141/7
f 116/160/7 109/157/7 93/134/7 94/133/7
f 113/161/16 108/122/16 92/127/16 98/131/16
f 107/162/30 116/163/30 94/130/30 91/129/30
f 108/122/31 107/121/31 91/128/31 92/127/31
f 86/132/32 78/164/32 96/165/32 98/131/32
f 100/153/33 98/166/33 96/156/33 99/154/33
f 104/167/14 103/168/14 102/169/14 101/170/14
f 106/171/14 104/167/14 101/170/14 105/172/14
f 86/132/5 104/173/5 106/174/5 78/164/5
f 69/93/9 102/175/9 103/176/9 72/125/9
f 85/111/3 101/145/3 102/175/3 69/93/3
f 72/125/5 103/176/5 104/173/5 86/132/5
f 61/103/30 59/102/30 116/163/30 107/162/30
f 88/177/20 65/119/20 108/122/20 113/161/20
f 59/178/7 63/179/7 109/157/7 116/160/7
f 83/180/7 75/181/7 110/159/7 112/158/7
f 63/179/7 83/180/7 112/158/7 109/157/7
f 113/182/34 115/152/34 114/151/34 111/155/34
f 88/177/22 113/161/22 111/183/22 80/184/22
f 98/166/35 100/153/35 115/152/35 113/182/35
